<svg width="14" height="14" viewBox="0 0 14 14" fill="none" xmlns="http://www.w3.org/2000/svg">
<path d="M10.586 5.67315L6.636 1.72315C6.45384 1.53455 6.35305 1.28195 6.35533 1.01975C6.3576 0.757556 6.46277 0.506744 6.64818 0.321336C6.83359 0.135928 7.0844 0.0307586 7.3466 0.0284802C7.6088 0.0262018 7.8614 0.126996 8.05 0.309154L13.707 5.96615C13.8002 6.05881 13.8741 6.16897 13.9246 6.2903C13.9751 6.41163 14.001 6.54175 14.001 6.67315C14.001 6.80456 13.9751 6.93467 13.9246 7.05601C13.8741 7.17734 13.8002 7.2875 13.707 7.38015L8.05 13.0372C7.95775 13.1327 7.84741 13.2088 7.7254 13.2613C7.6034 13.3137 7.47218 13.3413 7.3394 13.3424C7.20662 13.3436 7.07494 13.3183 6.95205 13.268C6.82915 13.2177 6.7175 13.1434 6.62361 13.0495C6.52971 12.9557 6.45546 12.844 6.40518 12.7211C6.3549 12.5982 6.3296 12.4665 6.33075 12.3338C6.3319 12.201 6.35949 12.0698 6.4119 11.9478C6.46431 11.8257 6.54049 11.7154 6.636 11.6232L10.586 7.67315H1C0.734784 7.67315 0.48043 7.5678 0.292893 7.38026C0.105357 7.19272 0 6.93837 0 6.67315C0 6.40794 0.105357 6.15358 0.292893 5.96605C0.48043 5.77851 0.734784 5.67315 1 5.67315H10.586Z" fill="#2563EB"/>
</svg>
