<svg width="26" height="33" viewBox="0 0 26 33" fill="none" xmlns="http://www.w3.org/2000/svg">
<path d="M15.7631 9.30396C16.7145 9.30483 17.6551 9.51143 18.5234 9.91017C19.3917 10.309 20.1683 10.891 20.8026 11.6182L22.7883 9.78226C21.5173 8.33262 19.8497 7.30954 18.0032 6.84661C16.1568 6.38362 14.2172 6.50227 12.4374 7.18702C10.6576 7.87177 9.12043 9.09082 8.02642 10.6851C6.93236 12.2794 6.33231 14.1749 6.30448 16.1243C6.27665 18.0736 6.82239 19.9863 7.87044 21.6128C8.91854 23.2392 10.4203 24.5039 12.1797 25.2418C13.9391 25.9796 15.8746 26.1565 17.7335 25.7491C19.5924 25.3418 21.2884 24.3693 22.6003 22.9584L20.6597 21.0684C19.8866 21.8975 18.9253 22.5172 17.8617 22.8722C16.7981 23.2271 15.6652 23.3063 14.5645 23.1024C13.4638 22.8987 12.4295 22.4183 11.554 21.7043C10.6785 20.9904 9.98918 20.065 9.54763 19.011C9.10603 17.957 8.92596 16.8072 9.02351 15.6644C9.12111 14.5216 9.49323 13.4213 10.1067 12.4621C10.7201 11.5028 11.5558 10.7144 12.5389 10.1674C13.5221 9.62028 14.6221 9.3316 15.7406 9.32709L15.7631 9.30396Z" fill="#64748B"/>
<path d="M6.78787 7.01007L4.8288 5.11465C3.29837 6.57657 2.08397 8.31426 1.25527 10.228C0.426618 12.1417 0 14.1937 0 16.2662C0 18.3386 0.426618 20.3906 1.25527 22.3043C2.08397 24.2181 3.29837 25.9558 4.8288 27.4177L6.78787 25.5222C5.5119 24.3119 4.49886 22.8706 3.80741 21.2817C3.11602 19.6928 2.76 17.9881 2.76 16.2662C2.76 14.5443 3.11602 12.8395 3.80741 11.2506C4.49886 9.66175 5.5119 8.2204 6.78787 7.01007Z" fill="#64748B"/>
<path d="M25.2124 3.40572C22.5412 1.36204 19.3135 0.262016 16.0002 0.266186V3.01814C18.7341 3.01552 21.3979 3.91957 23.6064 5.59952L25.2124 3.40572Z" fill="#64748B"/>
<path d="M16.0002 29.5513V32.2662C19.0995 32.2697 22.1325 31.366 24.7275 29.666L23.2031 27.4177C21.0587 28.8136 18.5565 29.5548 16.0002 29.5513Z" fill="#64748B"/>
<path d="M15.9999 26.1982C13.9004 26.1968 11.852 25.5689 10.132 24.3995C8.41204 23.2301 7.10353 21.5756 6.38353 19.6601L3.87866 20.7899C4.82193 23.1688 6.48496 25.2143 8.64869 26.657C10.8124 28.0998 13.3753 28.8721 15.9999 28.8722V26.1982Z" fill="#64748B"/>
<path d="M6.06846 15.7813C6.23108 13.2308 7.34788 10.8382 9.19219 9.08915C11.0365 7.34011 13.4702 6.36547 15.9996 6.36299V3.66011C12.7605 3.66001 9.64533 4.91829 7.29881 7.17453C4.95229 9.43082 3.55404 12.5123 3.39355 15.7813H6.06846Z" fill="#64748B"/>
</svg>
