<svg width="30" height="33" viewBox="0 0 30 33" fill="none" xmlns="http://www.w3.org/2000/svg">
<path d="M14.6359 22.0523C13.7586 22.0562 12.8929 21.8436 12.1098 21.4321C11.3267 21.0206 10.6485 20.4218 10.1309 19.6849L6.52319 21.8406C6.66048 22.0052 6.823 22.145 7.00423 22.2544L13.4241 26.1037C13.7993 26.3031 14.2146 26.407 14.6359 26.407C15.0572 26.407 15.4725 26.3031 15.8477 26.1037L22.2675 22.2544C22.4487 22.145 22.6113 22.0052 22.7485 21.8406L19.1501 19.6465C18.6356 20.3918 17.9577 20.9988 17.1726 21.4172C16.3876 21.8356 15.5179 22.0533 14.6359 22.0523Z" fill="#64748B"/>
<path d="M8.98639 16.2432C8.98968 14.8746 9.5216 13.5552 10.4805 12.5371C11.4394 11.519 12.758 10.8736 14.1842 10.7243V6.57602C13.9678 6.61893 13.7597 6.69338 13.567 6.79677L6.87448 10.476C6.51072 10.7081 6.20825 11.0174 5.99079 11.3797C5.77328 11.7419 5.64667 12.1472 5.62085 12.5639V19.9224C5.62382 20.1347 5.65952 20.3455 5.7269 20.5478L9.48789 18.4783C9.15901 17.7748 8.9882 17.0134 8.98639 16.2432Z" fill="#64748B"/>
<path d="M22.4621 10.4734L16.1218 6.79664C15.9394 6.69329 15.7421 6.61888 15.5371 6.57602V10.7124C16.3985 10.8106 17.2249 11.1109 17.9498 11.5892C18.6747 12.0674 19.2779 12.7102 19.7107 13.4659C20.1436 14.2215 20.394 15.0689 20.4419 15.9398C20.4897 16.8106 20.3337 17.6806 19.9863 18.4797L23.5493 20.5478C23.6131 20.3456 23.647 20.135 23.6498 19.9228V12.5692C23.6267 12.1512 23.5074 11.7443 23.3013 11.3806C23.0951 11.0169 22.8079 10.7063 22.4621 10.4734Z" fill="#64748B"/>
<path d="M27.0796 6.78836L16.6129 0.735041C15.999 0.426714 15.3217 0.266174 14.6349 0.266174C13.9482 0.266174 13.2709 0.426714 12.6571 0.735041L2.19027 6.78836C1.61576 7.16317 1.13743 7.668 0.793811 8.26207C0.450239 8.85614 0.251073 9.52278 0.212402 10.2081V22.3147C0.250352 23.0015 0.449158 23.6698 0.79273 24.2655C1.1363 24.8612 1.61504 25.3677 2.19027 25.744L12.6571 31.7974C13.2709 32.1057 13.9482 32.2662 14.6349 32.2662C15.3217 32.2662 15.999 32.1057 16.6129 31.7974L27.0796 25.744C27.6548 25.3677 28.1336 24.8612 28.4771 24.2655C28.8207 23.6698 29.0195 23.0015 29.0575 22.3147V10.2081C29.0188 9.52278 28.8196 8.85614 28.4761 8.26207C28.1324 7.668 27.6541 7.16317 27.0796 6.78836ZM25.7357 20.9222C25.705 21.4498 25.5512 21.9628 25.2866 22.4202C25.022 22.8776 24.654 23.2664 24.2121 23.5557L16.1491 28.2165C15.6781 28.4546 15.1578 28.5786 14.6302 28.5786C14.1026 28.5786 13.5823 28.4546 13.1113 28.2165L5.05779 23.5557C4.61587 23.2664 4.24787 22.8776 3.98331 22.4202C3.7187 21.9628 3.56487 21.4498 3.53414 20.9222V11.6102C3.56487 11.0825 3.7187 10.5695 3.98331 10.1122C4.24787 9.65479 4.61587 9.26588 5.05779 8.97662L13.1018 4.31589C13.5728 4.07778 14.0931 3.9537 14.6207 3.9537C15.1484 3.9537 15.6687 4.07778 16.1397 4.31589L24.2026 8.97662C24.6462 9.26484 25.0161 9.65331 25.2824 10.1107C25.5487 10.5681 25.704 11.0817 25.7357 11.6102V20.9222Z" fill="#64748B"/>
<path d="M10.5798 16.2662C10.5798 17.0238 10.8177 17.7645 11.2634 18.3945C11.7091 19.0246 12.3427 19.5156 13.0839 19.8055C13.8251 20.0955 14.6407 20.1713 15.4276 20.0236C16.2144 19.8757 16.9372 19.5109 17.5044 18.9751C18.0717 18.4393 18.4581 17.7567 18.6146 17.0136C18.7711 16.2704 18.6908 15.5001 18.3837 14.8001C18.0767 14.1001 17.5569 13.5018 16.8898 13.0808C16.2227 12.6599 15.4384 12.4352 14.6362 12.4352C13.5604 12.4352 12.5286 12.8388 11.7679 13.5573C11.0072 14.2757 10.5798 15.2501 10.5798 16.2662Z" fill="#64748B"/>
</svg>
