<svg width="28" height="33" viewBox="0 0 28 33" fill="none" xmlns="http://www.w3.org/2000/svg">
<path d="M13.9785 3.37766L19.296 6.44829L21.9921 4.89595L13.9785 0.266174L0.593018 8.00063L3.27556 9.55296L13.9785 3.37766Z" fill="#64748B"/>
<path d="M24.6768 6.4483L13.9807 12.6236L8.66323 9.55298L5.97388 11.1053L13.9807 15.7283L27.373 8.00064L24.6768 6.4483Z" fill="#64748B"/>
<path d="M2.74624 16.8381L0.0568848 15.2858V24.5317L13.4424 32.2662V29.1615L2.74624 22.9794V16.8381Z" fill="#64748B"/>
<path d="M0.0568848 12.181L10.753 18.3563V24.4975L13.4424 26.0567V16.8039L0.0568848 9.07629V12.181Z" fill="#64748B"/>
<path d="M22.5326 15.2857V12.181L14.519 16.804V32.2661L17.2084 30.7138V18.3564L22.5326 15.2857Z" fill="#64748B"/>
<path d="M25.2147 10.6286V22.9792L19.8972 26.0567V29.1614L27.9108 24.5316V9.07629L25.2147 10.6286Z" fill="#64748B"/>
</svg>
