<svg width="35" height="33" viewBox="0 0 35 33" fill="none" xmlns="http://www.w3.org/2000/svg">
<path d="M11.3003 13.2583L6.1089 10.2402L0.910645 13.2583V19.2809L6.1089 22.2922L11.3003 19.2809V13.2583ZM10.1824 18.6331L6.1089 20.9898L2.03534 18.6331V13.9061L6.1089 11.5426L10.1824 13.9061V18.6331Z" fill="#64748B"/>
<path d="M22.5207 13.2515L17.5304 10.2402L12.5466 13.2515V19.274L17.5304 22.2922L22.5207 19.274V13.2515Z" fill="#64748B"/>
<path d="M28.96 10.2402L23.7686 13.2583V19.2809L28.96 22.2922L34.1582 19.2809V13.2583L28.96 10.2402ZM33.0336 18.6331L28.96 20.9898L24.8864 18.6331V13.9061L28.96 11.5426L33.0336 13.9061V18.6331Z" fill="#64748B"/>
<path d="M6.72974 23.2323V29.2549L11.9348 32.2662L17.1194 29.2549V23.2323L11.9348 20.2142L6.72974 23.2323ZM15.9824 28.6278L11.9348 30.9638L7.82555 28.6278V23.8801L11.9348 21.5166L15.9962 23.8801L15.9824 28.6278Z" fill="#64748B"/>
<path d="M17.9495 23.2323V29.2549L23.1408 32.2662L28.3391 29.2549V23.2323L23.1408 20.2142L17.9495 23.2323ZM27.2144 28.6278L23.1408 30.9845L19.0742 28.6278V23.8801L23.1408 21.5166L27.2144 23.8801V28.6278Z" fill="#64748B"/>
<path d="M17.1194 9.30685V3.26366L11.9417 0.266174L6.72974 3.26366V9.28619L11.9417 12.3181L17.1194 9.30685ZM7.827 3.95274L11.9417 1.56853L15.9947 3.95274V8.67981L11.9417 11.0158L7.827 8.65911V3.95274Z" fill="#64748B"/>
<path d="M28.3391 9.32754V3.28432L23.1408 0.266174L17.9495 3.28432V9.30685L23.1408 12.3181L28.3391 9.32754ZM19.0742 3.9734L23.1408 1.60988L27.2144 3.9734V8.70046L23.1408 11.0571L19.0742 8.70046V3.9734Z" fill="#64748B"/>
</svg>
