<svg width="241" height="56" viewBox="0 0 241 56" fill="none" xmlns="http://www.w3.org/2000/svg">
<path d="M6.31836 32.4023L10.0586 20.7812H12.7637L7.66602 35H5.83984L6.31836 32.4023ZM2.86133 20.7812L6.57227 32.4023L7.08008 35H5.24414L0.166016 20.7812H2.86133ZM17.1406 24.4336V35H14.7773V24.4336H17.1406ZM14.6211 21.6602C14.6211 21.3021 14.7383 21.0059 14.9727 20.7715C15.2135 20.5306 15.5456 20.4102 15.9688 20.4102C16.3854 20.4102 16.7142 20.5306 16.9551 20.7715C17.196 21.0059 17.3164 21.3021 17.3164 21.6602C17.3164 22.0117 17.196 22.3047 16.9551 22.5391C16.7142 22.7734 16.3854 22.8906 15.9688 22.8906C15.5456 22.8906 15.2135 22.7734 14.9727 22.5391C14.7383 22.3047 14.6211 22.0117 14.6211 21.6602ZM24.877 35.1953C24.0957 35.1953 23.3893 35.0684 22.7578 34.8145C22.1328 34.554 21.599 34.1927 21.1562 33.7305C20.7201 33.2682 20.3848 32.7246 20.1504 32.0996C19.916 31.4746 19.7988 30.8008 19.7988 30.0781V29.6875C19.7988 28.8607 19.9193 28.112 20.1602 27.4414C20.401 26.7708 20.7363 26.1979 21.166 25.7227C21.5957 25.2409 22.1035 24.873 22.6895 24.6191C23.2754 24.3652 23.9102 24.2383 24.5938 24.2383C25.349 24.2383 26.0098 24.3652 26.5762 24.6191C27.1426 24.873 27.6113 25.2311 27.9824 25.6934C28.36 26.1491 28.64 26.6927 28.8223 27.3242C29.0111 27.9557 29.1055 28.6523 29.1055 29.4141V30.4199H20.9414V28.7305H26.7812V28.5449C26.7682 28.1217 26.6836 27.7246 26.5273 27.3535C26.3776 26.9824 26.1465 26.6829 25.834 26.4551C25.5215 26.2272 25.1048 26.1133 24.584 26.1133C24.1934 26.1133 23.8451 26.1979 23.5391 26.3672C23.2396 26.5299 22.9889 26.7676 22.7871 27.0801C22.5853 27.3926 22.429 27.7702 22.3184 28.2129C22.2142 28.6491 22.1621 29.1406 22.1621 29.6875V30.0781C22.1621 30.5404 22.224 30.9701 22.3477 31.3672C22.4779 31.7578 22.6667 32.0996 22.9141 32.3926C23.1615 32.6855 23.4609 32.9167 23.8125 33.0859C24.1641 33.2487 24.5645 33.3301 25.0137 33.3301C25.5801 33.3301 26.0846 33.2161 26.5273 32.9883C26.9701 32.7604 27.3542 32.4382 27.6797 32.0215L28.9199 33.2227C28.6921 33.5547 28.3958 33.8737 28.0312 34.1797C27.6667 34.4792 27.2207 34.7233 26.6934 34.9121C26.1725 35.1009 25.5671 35.1953 24.877 35.1953ZM34.3125 32.6562L36.7539 24.4336H38.2578L37.8477 26.8945L35.3867 35H34.0391L34.3125 32.6562ZM32.877 24.4336L34.7812 32.6953L34.9375 35H33.4336L30.5723 24.4336H32.877ZM40.543 32.5977L42.3887 24.4336H44.6836L41.832 35H40.3281L40.543 32.5977ZM38.5117 24.4336L40.9238 32.5586L41.2266 35H39.8789L37.3887 26.8848L36.9785 24.4336H38.5117ZM58.2227 32.8809V27.8418C58.2227 27.4642 58.1543 27.1387 58.0176 26.8652C57.8809 26.5918 57.6725 26.3802 57.3926 26.2305C57.1191 26.0807 56.7741 26.0059 56.3574 26.0059C55.9733 26.0059 55.6413 26.071 55.3613 26.2012C55.0814 26.3314 54.8633 26.5072 54.707 26.7285C54.5508 26.9499 54.4727 27.2005 54.4727 27.4805H52.1289C52.1289 27.0638 52.2298 26.6602 52.4316 26.2695C52.6335 25.8789 52.9264 25.5306 53.3105 25.2246C53.6947 24.9186 54.1536 24.6777 54.6875 24.502C55.2214 24.3262 55.8203 24.2383 56.4844 24.2383C57.2786 24.2383 57.9818 24.3717 58.5938 24.6387C59.2122 24.9056 59.6973 25.3092 60.0488 25.8496C60.4069 26.3835 60.5859 27.054 60.5859 27.8613V32.5586C60.5859 33.0404 60.6185 33.4733 60.6836 33.8574C60.7552 34.235 60.8561 34.5638 60.9863 34.8438V35H58.5742C58.4635 34.7461 58.3757 34.4238 58.3105 34.0332C58.252 33.6361 58.2227 33.252 58.2227 32.8809ZM58.5645 28.5742L58.584 30.0293H56.8945C56.4583 30.0293 56.0742 30.0716 55.7422 30.1562C55.4102 30.2344 55.1335 30.3516 54.9121 30.5078C54.6908 30.6641 54.5247 30.8529 54.4141 31.0742C54.3034 31.2956 54.248 31.5462 54.248 31.8262C54.248 32.1061 54.3132 32.3633 54.4434 32.5977C54.5736 32.8255 54.7624 33.0046 55.0098 33.1348C55.2637 33.265 55.5697 33.3301 55.9277 33.3301C56.4095 33.3301 56.8294 33.2324 57.1875 33.0371C57.5521 32.8353 57.8385 32.5911 58.0469 32.3047C58.2552 32.0117 58.3659 31.735 58.3789 31.4746L59.1406 32.5195C59.0625 32.7865 58.929 33.0729 58.7402 33.3789C58.5514 33.6849 58.304 33.9779 57.998 34.2578C57.6986 34.5312 57.3372 34.7559 56.9141 34.9316C56.4974 35.1074 56.0156 35.1953 55.4688 35.1953C54.7786 35.1953 54.1634 35.0586 53.623 34.7852C53.0827 34.5052 52.6595 34.1309 52.3535 33.6621C52.0475 33.1868 51.8945 32.6497 51.8945 32.0508C51.8945 31.4909 51.9987 30.9961 52.207 30.5664C52.4219 30.1302 52.7344 29.7656 53.1445 29.4727C53.5612 29.1797 54.069 28.9583 54.668 28.8086C55.2669 28.6523 55.9505 28.5742 56.7188 28.5742H58.5645ZM66.0664 20V35H63.7031V20H66.0664ZM71.6641 20V35H69.3008V20H71.6641ZM85.0664 24.4336V26.1523H79.1094V24.4336H85.0664ZM80.8281 21.8457H83.1816V32.0801C83.1816 32.4056 83.2272 32.6562 83.3184 32.832C83.416 33.0013 83.5495 33.1152 83.7188 33.1738C83.888 33.2324 84.0866 33.2617 84.3145 33.2617C84.4772 33.2617 84.6335 33.252 84.7832 33.2324C84.9329 33.2129 85.0534 33.1934 85.1445 33.1738L85.1543 34.9707C84.959 35.0293 84.7311 35.0814 84.4707 35.127C84.2168 35.1725 83.9238 35.1953 83.5918 35.1953C83.0514 35.1953 82.5729 35.1009 82.1562 34.9121C81.7396 34.7168 81.4141 34.401 81.1797 33.9648C80.9453 33.5286 80.8281 32.9492 80.8281 32.2266V21.8457ZM89.707 20V35H87.3633V20H89.707ZM89.2969 29.3262L88.5352 29.3164C88.5417 28.5872 88.6426 27.9134 88.8379 27.2949C89.0397 26.6764 89.3197 26.1393 89.6777 25.6836C90.0423 25.2214 90.4785 24.8665 90.9863 24.6191C91.4941 24.3652 92.0573 24.2383 92.6758 24.2383C93.1966 24.2383 93.6654 24.3099 94.082 24.4531C94.5052 24.5964 94.8698 24.8275 95.1758 25.1465C95.4818 25.459 95.7129 25.8691 95.8691 26.377C96.0319 26.8783 96.1133 27.4902 96.1133 28.2129V35H93.75V28.1934C93.75 27.6855 93.6751 27.2819 93.5254 26.9824C93.3822 26.6829 93.1706 26.4681 92.8906 26.3379C92.6107 26.2012 92.2689 26.1328 91.8652 26.1328C91.4421 26.1328 91.0677 26.2174 90.7422 26.3867C90.4232 26.556 90.1562 26.7871 89.9414 27.0801C89.7266 27.373 89.5638 27.7116 89.4531 28.0957C89.349 28.4798 89.2969 28.89 89.2969 29.3262ZM103.654 35.1953C102.873 35.1953 102.167 35.0684 101.535 34.8145C100.91 34.554 100.376 34.1927 99.9336 33.7305C99.4974 33.2682 99.1621 32.7246 98.9277 32.0996C98.6934 31.4746 98.5762 30.8008 98.5762 30.0781V29.6875C98.5762 28.8607 98.6966 28.112 98.9375 27.4414C99.1784 26.7708 99.5137 26.1979 99.9434 25.7227C100.373 25.2409 100.881 24.873 101.467 24.6191C102.053 24.3652 102.688 24.2383 103.371 24.2383C104.126 24.2383 104.787 24.3652 105.354 24.6191C105.92 24.873 106.389 25.2311 106.76 25.6934C107.137 26.1491 107.417 26.6927 107.6 27.3242C107.788 27.9557 107.883 28.6523 107.883 29.4141V30.4199H99.7188V28.7305H105.559V28.5449C105.546 28.1217 105.461 27.7246 105.305 27.3535C105.155 26.9824 104.924 26.6829 104.611 26.4551C104.299 26.2272 103.882 26.1133 103.361 26.1133C102.971 26.1133 102.622 26.1979 102.316 26.3672C102.017 26.5299 101.766 26.7676 101.564 27.0801C101.363 27.3926 101.206 27.7702 101.096 28.2129C100.992 28.6491 100.939 29.1406 100.939 29.6875V30.0781C100.939 30.5404 101.001 30.9701 101.125 31.3672C101.255 31.7578 101.444 32.0996 101.691 32.3926C101.939 32.6855 102.238 32.9167 102.59 33.0859C102.941 33.2487 103.342 33.3301 103.791 33.3301C104.357 33.3301 104.862 33.2161 105.305 32.9883C105.747 32.7604 106.132 32.4382 106.457 32.0215L107.697 33.2227C107.469 33.5547 107.173 33.8737 106.809 34.1797C106.444 34.4792 105.998 34.7233 105.471 34.9121C104.95 35.1009 104.344 35.1953 103.654 35.1953ZM118.883 35H116.529V23.418C116.529 22.6302 116.676 21.9694 116.969 21.4355C117.268 20.8952 117.695 20.4883 118.248 20.2148C118.801 19.9349 119.456 19.7949 120.211 19.7949C120.445 19.7949 120.676 19.8112 120.904 19.8438C121.132 19.8698 121.354 19.9121 121.568 19.9707L121.51 21.7871C121.38 21.7546 121.236 21.7318 121.08 21.7188C120.93 21.7057 120.768 21.6992 120.592 21.6992C120.234 21.6992 119.924 21.7676 119.664 21.9043C119.41 22.0345 119.215 22.2266 119.078 22.4805C118.948 22.7344 118.883 23.0469 118.883 23.418V35ZM121.061 24.4336V26.1523H114.908V24.4336H121.061ZM127.693 35.1953C126.912 35.1953 126.206 35.0684 125.574 34.8145C124.949 34.554 124.415 34.1927 123.973 33.7305C123.536 33.2682 123.201 32.7246 122.967 32.0996C122.732 31.4746 122.615 30.8008 122.615 30.0781V29.6875C122.615 28.8607 122.736 28.112 122.977 27.4414C123.217 26.7708 123.553 26.1979 123.982 25.7227C124.412 25.2409 124.92 24.873 125.506 24.6191C126.092 24.3652 126.727 24.2383 127.41 24.2383C128.165 24.2383 128.826 24.3652 129.393 24.6191C129.959 24.873 130.428 25.2311 130.799 25.6934C131.176 26.1491 131.456 26.6927 131.639 27.3242C131.827 27.9557 131.922 28.6523 131.922 29.4141V30.4199H123.758V28.7305H129.598V28.5449C129.585 28.1217 129.5 27.7246 129.344 27.3535C129.194 26.9824 128.963 26.6829 128.65 26.4551C128.338 26.2272 127.921 26.1133 127.4 26.1133C127.01 26.1133 126.661 26.1979 126.355 26.3672C126.056 26.5299 125.805 26.7676 125.604 27.0801C125.402 27.3926 125.245 27.7702 125.135 28.2129C125.031 28.6491 124.979 29.1406 124.979 29.6875V30.0781C124.979 30.5404 125.04 30.9701 125.164 31.3672C125.294 31.7578 125.483 32.0996 125.73 32.3926C125.978 32.6855 126.277 32.9167 126.629 33.0859C126.98 33.2487 127.381 33.3301 127.83 33.3301C128.396 33.3301 128.901 33.2161 129.344 32.9883C129.786 32.7604 130.171 32.4382 130.496 32.0215L131.736 33.2227C131.508 33.5547 131.212 33.8737 130.848 34.1797C130.483 34.4792 130.037 34.7233 129.51 34.9121C128.989 35.1009 128.383 35.1953 127.693 35.1953ZM140.215 32.8809V27.8418C140.215 27.4642 140.146 27.1387 140.01 26.8652C139.873 26.5918 139.665 26.3802 139.385 26.2305C139.111 26.0807 138.766 26.0059 138.35 26.0059C137.965 26.0059 137.633 26.071 137.354 26.2012C137.074 26.3314 136.855 26.5072 136.699 26.7285C136.543 26.9499 136.465 27.2005 136.465 27.4805H134.121C134.121 27.0638 134.222 26.6602 134.424 26.2695C134.626 25.8789 134.919 25.5306 135.303 25.2246C135.687 24.9186 136.146 24.6777 136.68 24.502C137.214 24.3262 137.812 24.2383 138.477 24.2383C139.271 24.2383 139.974 24.3717 140.586 24.6387C141.204 24.9056 141.689 25.3092 142.041 25.8496C142.399 26.3835 142.578 27.054 142.578 27.8613V32.5586C142.578 33.0404 142.611 33.4733 142.676 33.8574C142.747 34.235 142.848 34.5638 142.979 34.8438V35H140.566C140.456 34.7461 140.368 34.4238 140.303 34.0332C140.244 33.6361 140.215 33.252 140.215 32.8809ZM140.557 28.5742L140.576 30.0293H138.887C138.451 30.0293 138.066 30.0716 137.734 30.1562C137.402 30.2344 137.126 30.3516 136.904 30.5078C136.683 30.6641 136.517 30.8529 136.406 31.0742C136.296 31.2956 136.24 31.5462 136.24 31.8262C136.24 32.1061 136.305 32.3633 136.436 32.5977C136.566 32.8255 136.755 33.0046 137.002 33.1348C137.256 33.265 137.562 33.3301 137.92 33.3301C138.402 33.3301 138.822 33.2324 139.18 33.0371C139.544 32.8353 139.831 32.5911 140.039 32.3047C140.247 32.0117 140.358 31.735 140.371 31.4746L141.133 32.5195C141.055 32.7865 140.921 33.0729 140.732 33.3789C140.544 33.6849 140.296 33.9779 139.99 34.2578C139.691 34.5312 139.329 34.7559 138.906 34.9316C138.49 35.1074 138.008 35.1953 137.461 35.1953C136.771 35.1953 136.156 35.0586 135.615 34.7852C135.075 34.5052 134.652 34.1309 134.346 33.6621C134.04 33.1868 133.887 32.6497 133.887 32.0508C133.887 31.4909 133.991 30.9961 134.199 30.5664C134.414 30.1302 134.727 29.7656 135.137 29.4727C135.553 29.1797 136.061 28.9583 136.66 28.8086C137.259 28.6523 137.943 28.5742 138.711 28.5742H140.557ZM150.383 24.4336V26.1523H144.426V24.4336H150.383ZM146.145 21.8457H148.498V32.0801C148.498 32.4056 148.544 32.6562 148.635 32.832C148.732 33.0013 148.866 33.1152 149.035 33.1738C149.204 33.2324 149.403 33.2617 149.631 33.2617C149.794 33.2617 149.95 33.252 150.1 33.2324C150.249 33.2129 150.37 33.1934 150.461 33.1738L150.471 34.9707C150.275 35.0293 150.048 35.0814 149.787 35.127C149.533 35.1725 149.24 35.1953 148.908 35.1953C148.368 35.1953 147.889 35.1009 147.473 34.9121C147.056 34.7168 146.73 34.401 146.496 33.9648C146.262 33.5286 146.145 32.9492 146.145 32.2266V21.8457ZM159.057 32.5098V24.4336H161.42V35H159.193L159.057 32.5098ZM159.389 30.3125L160.18 30.293C160.18 31.0026 160.102 31.6569 159.945 32.2559C159.789 32.8483 159.548 33.3659 159.223 33.8086C158.897 34.2448 158.48 34.5866 157.973 34.834C157.465 35.0749 156.856 35.1953 156.146 35.1953C155.632 35.1953 155.16 35.1204 154.73 34.9707C154.301 34.821 153.93 34.5898 153.617 34.2773C153.311 33.9648 153.074 33.5579 152.904 33.0566C152.735 32.5553 152.65 31.9564 152.65 31.2598V24.4336H155.004V31.2793C155.004 31.6634 155.049 31.9857 155.141 32.2461C155.232 32.5 155.355 32.7051 155.512 32.8613C155.668 33.0176 155.85 33.1283 156.059 33.1934C156.267 33.2585 156.488 33.291 156.723 33.291C157.393 33.291 157.921 33.1608 158.305 32.9004C158.695 32.6335 158.972 32.2754 159.135 31.8262C159.304 31.377 159.389 30.8724 159.389 30.3125ZM166.695 26.4453V35H164.342V24.4336H166.588L166.695 26.4453ZM169.928 24.3652L169.908 26.5527C169.765 26.5267 169.609 26.5072 169.439 26.4941C169.277 26.4811 169.114 26.4746 168.951 26.4746C168.548 26.4746 168.193 26.5332 167.887 26.6504C167.581 26.7611 167.324 26.9238 167.115 27.1387C166.913 27.347 166.757 27.6009 166.646 27.9004C166.536 28.1999 166.471 28.5352 166.451 28.9062L165.914 28.9453C165.914 28.2812 165.979 27.666 166.109 27.0996C166.24 26.5332 166.435 26.0352 166.695 25.6055C166.962 25.1758 167.294 24.8405 167.691 24.5996C168.095 24.3587 168.561 24.2383 169.088 24.2383C169.231 24.2383 169.384 24.2513 169.547 24.2773C169.716 24.3034 169.843 24.3327 169.928 24.3652ZM176.365 35.1953C175.584 35.1953 174.878 35.0684 174.246 34.8145C173.621 34.554 173.087 34.1927 172.645 33.7305C172.208 33.2682 171.873 32.7246 171.639 32.0996C171.404 31.4746 171.287 30.8008 171.287 30.0781V29.6875C171.287 28.8607 171.408 28.112 171.648 27.4414C171.889 26.7708 172.225 26.1979 172.654 25.7227C173.084 25.2409 173.592 24.873 174.178 24.6191C174.764 24.3652 175.398 24.2383 176.082 24.2383C176.837 24.2383 177.498 24.3652 178.064 24.6191C178.631 24.873 179.1 25.2311 179.471 25.6934C179.848 26.1491 180.128 26.6927 180.311 27.3242C180.499 27.9557 180.594 28.6523 180.594 29.4141V30.4199H172.43V28.7305H178.27V28.5449C178.257 28.1217 178.172 27.7246 178.016 27.3535C177.866 26.9824 177.635 26.6829 177.322 26.4551C177.01 26.2272 176.593 26.1133 176.072 26.1133C175.682 26.1133 175.333 26.1979 175.027 26.3672C174.728 26.5299 174.477 26.7676 174.275 27.0801C174.074 27.3926 173.917 27.7702 173.807 28.2129C173.702 28.6491 173.65 29.1406 173.65 29.6875V30.0781C173.65 30.5404 173.712 30.9701 173.836 31.3672C173.966 31.7578 174.155 32.0996 174.402 32.3926C174.65 32.6855 174.949 32.9167 175.301 33.0859C175.652 33.2487 176.053 33.3301 176.502 33.3301C177.068 33.3301 177.573 33.2161 178.016 32.9883C178.458 32.7604 178.842 32.4382 179.168 32.0215L180.408 33.2227C180.18 33.5547 179.884 33.8737 179.52 34.1797C179.155 34.4792 178.709 34.7233 178.182 34.9121C177.661 35.1009 177.055 35.1953 176.365 35.1953ZM188.857 32.1387C188.857 31.9043 188.799 31.6927 188.682 31.5039C188.564 31.3086 188.34 31.1328 188.008 30.9766C187.682 30.8203 187.201 30.6771 186.562 30.5469C186.003 30.4232 185.488 30.2767 185.02 30.1074C184.557 29.9316 184.16 29.7201 183.828 29.4727C183.496 29.2253 183.239 28.9323 183.057 28.5938C182.874 28.2552 182.783 27.8646 182.783 27.4219C182.783 26.9922 182.878 26.5853 183.066 26.2012C183.255 25.8171 183.525 25.4785 183.877 25.1855C184.229 24.8926 184.655 24.6615 185.156 24.4922C185.664 24.3229 186.23 24.2383 186.855 24.2383C187.741 24.2383 188.499 24.388 189.131 24.6875C189.769 24.9805 190.257 25.3809 190.596 25.8887C190.934 26.39 191.104 26.9564 191.104 27.5879H188.75C188.75 27.3079 188.678 27.0475 188.535 26.8066C188.398 26.5592 188.19 26.3607 187.91 26.2109C187.63 26.0547 187.279 25.9766 186.855 25.9766C186.452 25.9766 186.117 26.0417 185.85 26.1719C185.589 26.2956 185.394 26.4583 185.264 26.6602C185.14 26.862 185.078 27.0833 185.078 27.3242C185.078 27.5 185.111 27.6595 185.176 27.8027C185.247 27.9395 185.365 28.0664 185.527 28.1836C185.69 28.2943 185.911 28.3984 186.191 28.4961C186.478 28.5938 186.836 28.6882 187.266 28.7793C188.073 28.9486 188.766 29.1667 189.346 29.4336C189.932 29.694 190.381 30.0326 190.693 30.4492C191.006 30.8594 191.162 31.3802 191.162 32.0117C191.162 32.4805 191.061 32.9102 190.859 33.3008C190.664 33.6849 190.378 34.0202 190 34.3066C189.622 34.5866 189.17 34.8047 188.643 34.9609C188.122 35.1172 187.536 35.1953 186.885 35.1953C185.928 35.1953 185.117 35.026 184.453 34.6875C183.789 34.3424 183.285 33.903 182.939 33.3691C182.601 32.8288 182.432 32.2689 182.432 31.6895H184.707C184.733 32.1257 184.854 32.474 185.068 32.7344C185.29 32.9883 185.563 33.1738 185.889 33.291C186.221 33.4017 186.562 33.457 186.914 33.457C187.337 33.457 187.692 33.4017 187.979 33.291C188.265 33.1738 188.483 33.0176 188.633 32.8223C188.783 32.6204 188.857 32.3926 188.857 32.1387Z" fill="#2563EB"/>
<path d="M224.586 26.6569L220.636 22.7069C220.454 22.5183 220.353 22.2657 220.355 22.0035C220.358 21.7413 220.463 21.4905 220.648 21.3051C220.834 21.1197 221.084 21.0145 221.347 21.0122C221.609 21.01 221.861 21.1108 222.05 21.2929L227.707 26.9499C227.8 27.0426 227.874 27.1527 227.925 27.2741C227.975 27.3954 228.001 27.5255 228.001 27.6569C228.001 27.7883 227.975 27.9184 227.925 28.0398C227.874 28.1611 227.8 28.2713 227.707 28.3639L222.05 34.0209C221.958 34.1164 221.847 34.1926 221.725 34.245C221.603 34.2974 221.472 34.325 221.339 34.3262C221.207 34.3273 221.075 34.302 220.952 34.2517C220.829 34.2015 220.717 34.1272 220.624 34.0333C220.53 33.9394 220.455 33.8278 220.405 33.7049C220.355 33.582 220.33 33.4503 220.331 33.3175C220.332 33.1847 220.359 33.0535 220.412 32.9315C220.464 32.8095 220.54 32.6992 220.636 32.6069L224.586 28.6569H215C214.735 28.6569 214.48 28.5516 214.293 28.364C214.105 28.1765 214 27.9221 214 27.6569C214 27.3917 214.105 27.1373 214.293 26.9498C214.48 26.7623 214.735 26.6569 215 26.6569H224.586Z" fill="#2563EB"/>
</svg>
