<svg width="64" height="65" viewBox="0 0 64 65" fill="none" xmlns="http://www.w3.org/2000/svg">
<path d="M15.2151 4.50002C15.1321 4.49926 15.0503 4.51914 14.9769 4.55789C14.9036 4.59663 14.841 4.65302 14.7949 4.72196C14.7488 4.7909 14.7205 4.87024 14.7127 4.95282C14.7049 5.03541 14.7177 5.11864 14.7501 5.19502L15.0376 5.87377L20.1251 17.7363C20.1596 17.817 20.2148 17.8871 20.2851 17.9397C20.3554 17.9923 20.4383 18.0254 20.5255 18.0358C20.6126 18.0462 20.701 18.0335 20.7817 17.9989C20.8623 17.9643 20.9325 17.9091 20.9851 17.8388L30.375 5.30002C30.4308 5.22574 30.4647 5.1374 30.473 5.04492C30.4814 4.95244 30.4638 4.85947 30.4223 4.77641C30.3807 4.69336 30.3169 4.62351 30.2379 4.5747C30.1589 4.52588 30.0679 4.50002 29.975 4.50002H15.2151Z" fill="#FACC15"/>
<path d="M52.4911 7.75747L47.3311 19.8037C47.2987 19.8798 47.2856 19.9627 47.2931 20.045C47.3005 20.1274 47.3283 20.2066 47.3738 20.2756C47.4194 20.3446 47.4814 20.4012 47.5542 20.4403C47.6271 20.4795 47.7085 20.5 47.7911 20.5H60.4161C60.5053 20.5 60.5928 20.4762 60.6697 20.4311C60.7465 20.3859 60.8099 20.321 60.8533 20.2431C60.8966 20.1652 60.9184 20.0771 60.9162 19.988C60.9141 19.8989 60.8882 19.812 60.8411 19.7362L53.3749 7.69122C53.3267 7.61367 53.2581 7.55082 53.1767 7.50948C53.0952 7.46814 53.004 7.44989 52.913 7.45672C52.8219 7.46355 52.7344 7.49519 52.6601 7.54821C52.5857 7.60123 52.5273 7.6736 52.4911 7.75747Z" fill="#FACC15"/>
<path d="M10.6249 7.69628L3.16116 19.7363C3.11414 19.812 3.08821 19.8989 3.08608 19.9881C3.08395 20.0772 3.10568 20.1653 3.14903 20.2432C3.19238 20.3211 3.25576 20.3859 3.33262 20.4311C3.40948 20.4763 3.49701 20.5001 3.58616 20.5H16.2112C16.2939 20.4999 16.3753 20.4793 16.4481 20.44C16.5209 20.4007 16.5828 20.3439 16.6283 20.2748C16.6738 20.2057 16.7014 20.1263 16.7086 20.0439C16.7159 19.9615 16.7026 19.8785 16.6699 19.8025L11.4999 7.76253C11.4629 7.68074 11.4046 7.61042 11.3311 7.55894C11.2576 7.50745 11.1716 7.47671 11.0821 7.46993C10.9926 7.46316 10.9029 7.4806 10.8224 7.52042C10.742 7.56025 10.6738 7.62099 10.6249 7.69628Z" fill="#FACC15"/>
<path d="M49.1587 4.50001H33.4775C33.4322 4.49971 33.3878 4.51209 33.3492 4.53572C33.3106 4.55936 33.2794 4.59333 33.2591 4.63377C33.2389 4.67422 33.2303 4.71953 33.2344 4.76459C33.2385 4.80965 33.2552 4.85266 33.2825 4.88876L43.2725 18.1963C43.298 18.2304 43.332 18.2573 43.3712 18.2741C43.4104 18.2909 43.4533 18.2971 43.4957 18.292C43.538 18.287 43.5783 18.2708 43.6124 18.2452C43.6465 18.2196 43.6733 18.1855 43.69 18.1463L48.95 5.87501L49.375 4.83251C49.3899 4.79672 49.396 4.75784 49.3927 4.71919C49.3893 4.68055 49.3767 4.64328 49.3558 4.6106C49.3349 4.57791 49.3064 4.55078 49.2727 4.53151C49.2391 4.51225 49.2012 4.50144 49.1625 4.50001H49.1587Z" fill="#FACC15"/>
<path d="M29.8749 56.5L18.6962 24.8138C18.6634 24.7217 18.6028 24.6422 18.5229 24.586C18.443 24.5298 18.3476 24.4998 18.2499 24.5H3.21242C3.12531 24.4998 3.03988 24.524 2.96587 24.5699C2.89186 24.6159 2.83224 24.6817 2.7938 24.7598C2.75537 24.838 2.73967 24.9254 2.74848 25.0121C2.7573 25.0987 2.79028 25.1812 2.84367 25.25L29.8437 60.2263C29.9351 60.3446 30.0655 60.4268 30.2117 60.4581C30.3579 60.4895 30.5105 60.468 30.6424 60.3975C30.7751 60.3277 30.8782 60.2126 30.9331 60.073C30.9879 59.9335 30.9908 59.779 30.9412 59.6375L29.8749 56.5Z" fill="#FACC15"/>
<path d="M60.7875 24.5H45.75C45.6529 24.5 45.5581 24.5302 45.4788 24.5864C45.3995 24.6426 45.3397 24.722 45.3075 24.8138L33.0325 59.5837C32.981 59.7297 32.9831 59.8893 33.0385 60.0338C33.094 60.1784 33.1991 60.2984 33.335 60.3725C33.471 60.4461 33.6287 60.4691 33.78 60.4373C33.9314 60.4055 34.0665 60.3209 34.1613 60.1987L61.1563 25.25C61.2097 25.1812 61.2427 25.0987 61.2515 25.0121C61.2603 24.9254 61.2446 24.838 61.2062 24.7598C61.1677 24.6817 61.1081 24.6159 61.0341 24.5699C60.9601 24.524 60.8746 24.4998 60.7875 24.5Z" fill="#FACC15"/>
<path d="M32.3999 10.3663L39.3999 19.7C39.4556 19.7743 39.4895 19.8626 39.4979 19.9551C39.5062 20.0476 39.4886 20.1406 39.4471 20.2236C39.4056 20.3067 39.3417 20.3765 39.2628 20.4253C39.1838 20.4742 39.0927 20.5 38.9999 20.5H24.9999C24.907 20.5 24.816 20.4742 24.737 20.4253C24.658 20.3765 24.5942 20.3067 24.5527 20.2236C24.5111 20.1406 24.4936 20.0476 24.5019 19.9551C24.5102 19.8626 24.5442 19.7743 24.5999 19.7L31.5999 10.3663C31.6465 10.3042 31.7069 10.2538 31.7763 10.219C31.8457 10.1843 31.9223 10.1663 31.9999 10.1663C32.0775 10.1663 32.1541 10.1843 32.2235 10.219C32.2929 10.2538 32.3533 10.3042 32.3999 10.3663ZM31.5249 49.155L23.0624 25.1663C23.0358 25.0909 23.0277 25.0102 23.0387 24.9311C23.0497 24.8519 23.0796 24.7765 23.1257 24.7113C23.1719 24.646 23.233 24.5928 23.304 24.556C23.375 24.5193 23.4537 24.5001 23.5336 24.5H40.4661C40.5461 24.5001 40.6248 24.5193 40.6958 24.556C40.7668 24.5928 40.8279 24.646 40.874 24.7113C40.9202 24.7765 40.95 24.8519 40.9611 24.9311C40.9721 25.0102 40.964 25.0909 40.9374 25.1663L32.4711 49.155C32.4366 49.2524 32.3728 49.3367 32.2884 49.3963C32.204 49.4559 32.1032 49.4879 31.9999 49.4879C31.8966 49.4879 31.7958 49.4559 31.7114 49.3963C31.627 49.3367 31.5632 49.2524 31.5286 49.155H31.5249Z" fill="#FB923C"/>
</svg>
