<svg width="65" height="65" viewBox="0 0 65 65" fill="none" xmlns="http://www.w3.org/2000/svg">
<path d="M32.3335 46.4999C31.9853 46.4999 31.6432 46.409 31.341 46.2362L13.8335 36.2299C13.6814 36.1421 13.5088 36.0959 13.3331 36.0959C13.1575 36.096 12.9849 36.1424 12.8329 36.2303C12.6808 36.3182 12.5546 36.4447 12.4669 36.5969C12.3793 36.7491 12.3332 36.9218 12.3335 37.0974V46.4999C12.3332 46.8569 12.4284 47.2074 12.6093 47.5151C12.7902 47.8229 13.0502 48.0766 13.3622 48.2499L31.3622 58.2499C31.6594 58.415 31.9936 58.5016 32.3335 58.5016C32.6734 58.5016 33.0076 58.415 33.3047 58.2499L51.3047 48.2499C51.6168 48.0766 51.8768 47.8229 52.0577 47.5151C52.2386 47.2074 52.3338 46.8569 52.3335 46.4999V37.0974C52.3338 36.9218 52.2877 36.7491 52.2001 36.5969C52.1124 36.4447 51.9862 36.3182 51.8341 36.2303C51.6821 36.1424 51.5095 36.096 51.3339 36.0959C51.1582 36.0959 50.9856 36.1421 50.8335 36.2299L33.326 46.2362C33.0238 46.409 32.6816 46.4999 32.3335 46.4999Z" fill="#FACC15"/>
<path d="M62.3236 24.3124C62.3236 24.3124 62.3236 24.3024 62.3236 24.2986C62.2913 23.9816 62.1836 23.6769 62.0097 23.4099C61.8358 23.1429 61.6005 22.9213 61.3236 22.7636L33.3236 6.76364C33.0214 6.59088 32.6792 6.5 32.3311 6.5C31.983 6.5 31.6409 6.59088 31.3386 6.76364L3.33861 22.7636C3.03259 22.9386 2.77825 23.1913 2.60136 23.4962C2.42447 23.8011 2.3313 24.1474 2.3313 24.4999C2.3313 24.8524 2.42447 25.1986 2.60136 25.5035C2.77825 25.8084 3.03259 26.0612 3.33861 26.2361L31.3386 42.2361C31.6409 42.4089 31.983 42.4998 32.3311 42.4998C32.6792 42.4998 33.0214 42.4089 33.3236 42.2361L57.9586 28.1599C57.9967 28.1379 58.0399 28.1264 58.0839 28.1264C58.1278 28.1264 58.171 28.1381 58.209 28.1601C58.2471 28.1822 58.2786 28.2139 58.3005 28.252C58.3224 28.2902 58.3338 28.3334 58.3336 28.3774V46.4436C58.3336 47.5199 59.1611 48.4436 60.2374 48.4974C60.5078 48.5104 60.778 48.4684 61.0317 48.3739C61.2854 48.2794 61.5173 48.1344 61.7133 47.9476C61.9093 47.7608 62.0653 47.5362 62.172 47.2874C62.2786 47.0385 62.3336 46.7706 62.3336 46.4999V24.4999C62.3335 24.4373 62.3301 24.3747 62.3236 24.3124Z" fill="#FB923C"/>
</svg>
