<svg width="257" height="554" viewBox="0 0 257 554" fill="none" xmlns="http://www.w3.org/2000/svg">
<path d="M184 59.7212L187.601 61.6141L186.913 57.6043L189.828 54.7646L185.801 54.1795L184 50.5308L182.199 54.1795L178.173 54.7646L181.087 57.6043L180.399 61.6141L184 59.7212Z" fill="#FACC15"/>
<g clip-path="url(#clip0_102_90904)">
<path d="M250.524 169.424L253.353 170.911L252.813 167.76L255.103 165.529L251.939 165.07L250.524 162.203L249.109 165.07L245.945 165.529L248.235 167.76L247.694 170.911L250.524 169.424Z" fill="#FACC15"/>
</g>
<g clip-path="url(#clip1_102_90904)">
<path d="M132.5 92.4354C134.111 92.4354 135.417 91.1296 135.417 89.5187C135.417 87.9078 134.111 86.6021 132.5 86.6021C130.889 86.6021 129.584 87.9078 129.584 89.5187C129.584 91.1296 130.889 92.4354 132.5 92.4354Z" fill="#FACC15"/>
</g>
<g clip-path="url(#clip2_102_90904)">
<path d="M231 494.355C232.841 494.355 234.333 492.863 234.333 491.022C234.333 489.181 232.841 487.688 231 487.688C229.159 487.688 227.667 489.181 227.667 491.022C227.667 492.863 229.159 494.355 231 494.355Z" fill="#FACC15"/>
</g>
<g clip-path="url(#clip3_102_90904)">
<path d="M75.0003 118.194C77.3016 118.194 79.167 116.329 79.167 114.028C79.167 111.726 77.3016 109.861 75.0003 109.861C72.6991 109.861 70.8337 111.726 70.8337 114.028C70.8337 116.329 72.6991 118.194 75.0003 118.194Z" fill="#FACC15"/>
</g>
<g clip-path="url(#clip4_102_90904)">
<path d="M5.00033 494.194C7.30158 494.194 9.16699 492.328 9.16699 490.027C9.16699 487.726 7.30158 485.86 5.00033 485.86C2.69908 485.86 0.833658 487.726 0.833658 490.027C0.833658 492.328 2.69908 494.194 5.00033 494.194Z" fill="#FACC15"/>
</g>
<g clip-path="url(#clip5_102_90904)">
<path d="M214.5 10.1132C217.032 10.1132 219.083 8.06124 219.083 5.52987C219.083 2.99849 217.032 0.946533 214.5 0.946533C211.969 0.946533 209.917 2.99849 209.917 5.52987C209.917 8.06124 211.969 10.1132 214.5 10.1132Z" fill="#FACC15"/>
</g>
<g clip-path="url(#clip6_102_90904)">
<path d="M240.024 264.678C240.944 264.678 241.69 263.931 241.69 263.011C241.69 262.09 240.944 261.344 240.024 261.344C239.103 261.344 238.357 262.09 238.357 263.011C238.357 263.931 239.103 264.678 240.024 264.678Z" fill="#FACC15"/>
</g>
<g clip-path="url(#clip7_102_90904)">
<path d="M120.5 301.435C122.111 301.435 123.417 300.129 123.417 298.518C123.417 296.907 122.111 295.602 120.5 295.602C118.889 295.602 117.584 296.907 117.584 298.518C117.584 300.129 118.889 301.435 120.5 301.435Z" fill="#FACC15"/>
</g>
<g clip-path="url(#clip8_102_90904)">
<path d="M66.0002 32.5164C67.381 32.5164 68.5002 31.3971 68.5002 30.0164C68.5002 28.6356 67.381 27.5164 66.0002 27.5164C64.6195 27.5164 63.5002 28.6356 63.5002 30.0164C63.5002 31.3971 64.6195 32.5164 66.0002 32.5164Z" fill="#FACC15"/>
</g>
<path d="M205.649 134.125V131C205.649 130.834 205.715 130.675 205.832 130.558C205.949 130.441 206.108 130.375 206.274 130.375C206.439 130.375 206.598 130.441 206.716 130.558C206.833 130.675 206.899 130.834 206.899 131V134.125H210.024C210.189 134.125 210.348 134.191 210.466 134.308C210.583 134.425 210.649 134.584 210.649 134.75C210.649 134.916 210.583 135.075 210.466 135.192C210.348 135.309 210.189 135.375 210.024 135.375H206.899V138.5C206.899 138.666 206.833 138.825 206.716 138.942C206.598 139.059 206.439 139.125 206.274 139.125C206.108 139.125 205.949 139.059 205.832 138.942C205.715 138.825 205.649 138.666 205.649 138.5V135.375H202.524C202.358 135.375 202.199 135.309 202.082 135.192C201.965 135.075 201.899 134.916 201.899 134.75C201.899 134.584 201.965 134.425 202.082 134.308C202.199 134.191 202.358 134.125 202.524 134.125H205.649Z" fill="#FACC15"/>
<path d="M222.557 205.8V204.133C222.557 204.045 222.592 203.96 222.655 203.897C222.717 203.835 222.802 203.8 222.89 203.8C222.979 203.8 223.063 203.835 223.126 203.897C223.189 203.96 223.224 204.045 223.224 204.133V205.8H224.89C224.979 205.8 225.063 205.835 225.126 205.897C225.189 205.96 225.224 206.045 225.224 206.133C225.224 206.222 225.189 206.306 225.126 206.369C225.063 206.431 224.979 206.466 224.89 206.466H223.224V208.133C223.224 208.222 223.189 208.306 223.126 208.369C223.063 208.431 222.979 208.466 222.89 208.466C222.802 208.466 222.717 208.431 222.655 208.369C222.592 208.306 222.557 208.222 222.557 208.133V206.466H220.89C220.802 206.466 220.717 206.431 220.655 206.369C220.592 206.306 220.557 206.222 220.557 206.133C220.557 206.045 220.592 205.96 220.655 205.897C220.717 205.835 220.802 205.8 220.89 205.8H222.557Z" fill="#FACC15"/>
<g clip-path="url(#clip9_102_90904)">
<path d="M166.025 241.516C167.405 241.516 168.525 240.397 168.525 239.016C168.525 237.635 167.405 236.516 166.025 236.516C164.644 236.516 163.525 237.635 163.525 239.016C163.525 240.397 164.644 241.516 166.025 241.516Z" fill="#FACC15"/>
</g>
<path d="M123.299 150.701V148.201C123.299 148.068 123.352 147.941 123.446 147.847C123.54 147.753 123.667 147.701 123.799 147.701C123.932 147.701 124.059 147.753 124.153 147.847C124.247 147.941 124.299 148.068 124.299 148.201V150.701H126.799C126.932 150.701 127.059 150.753 127.153 150.847C127.247 150.941 127.299 151.068 127.299 151.201C127.299 151.333 127.247 151.46 127.153 151.554C127.059 151.648 126.932 151.701 126.799 151.701H124.299V154.201C124.299 154.333 124.247 154.46 124.153 154.554C124.059 154.648 123.932 154.701 123.799 154.701C123.667 154.701 123.54 154.648 123.446 154.554C123.352 154.46 123.299 154.333 123.299 154.201V151.701H120.799C120.667 151.701 120.54 151.648 120.446 151.554C120.352 151.46 120.299 151.333 120.299 151.201C120.299 151.068 120.352 150.941 120.446 150.847C120.54 150.753 120.667 150.701 120.799 150.701H123.299Z" fill="#FACC15"/>
<path d="M120.251 389.479L119.514 388.742C119.495 388.723 119.479 388.7 119.468 388.675C119.457 388.649 119.451 388.622 119.451 388.594C119.451 388.567 119.456 388.539 119.466 388.514C119.477 388.488 119.492 388.465 119.512 388.445C119.531 388.426 119.555 388.41 119.58 388.4C119.606 388.389 119.633 388.384 119.661 388.384C119.689 388.385 119.716 388.39 119.741 388.401C119.767 388.412 119.79 388.428 119.809 388.448L120.546 389.184L121.282 388.448C121.301 388.428 121.324 388.412 121.35 388.401C121.375 388.39 121.403 388.385 121.43 388.384C121.458 388.384 121.485 388.389 121.511 388.4C121.537 388.41 121.56 388.426 121.579 388.445C121.599 388.465 121.614 388.488 121.625 388.514C121.635 388.539 121.641 388.567 121.64 388.594C121.64 388.622 121.634 388.649 121.623 388.675C121.613 388.7 121.597 388.723 121.577 388.742L120.84 389.479L121.577 390.216C121.597 390.235 121.613 390.258 121.623 390.283C121.634 390.309 121.64 390.336 121.64 390.364C121.641 390.391 121.635 390.419 121.625 390.444C121.614 390.47 121.599 390.493 121.579 390.513C121.56 390.532 121.537 390.548 121.511 390.558C121.485 390.569 121.458 390.574 121.43 390.574C121.403 390.574 121.375 390.568 121.35 390.557C121.324 390.546 121.301 390.53 121.282 390.51L120.546 389.774L119.809 390.51C119.79 390.53 119.767 390.546 119.741 390.557C119.716 390.568 119.689 390.574 119.661 390.574C119.633 390.574 119.606 390.569 119.58 390.558C119.555 390.548 119.531 390.532 119.512 390.513C119.492 390.493 119.477 390.47 119.466 390.444C119.456 390.419 119.451 390.391 119.451 390.364C119.451 390.336 119.457 390.309 119.468 390.283C119.479 390.258 119.495 390.235 119.514 390.216L120.251 389.479V389.479Z" fill="#FACC15"/>
<path d="M147.679 26.4374L145.47 24.2274C145.41 24.1697 145.362 24.1008 145.33 24.0245C145.297 23.9483 145.28 23.8662 145.279 23.7833C145.278 23.7003 145.294 23.618 145.325 23.5412C145.357 23.4644 145.403 23.3946 145.462 23.3359C145.521 23.2772 145.59 23.2308 145.667 23.1994C145.744 23.1679 145.826 23.1521 145.909 23.1529C145.992 23.1536 146.074 23.1708 146.151 23.2036C146.227 23.2363 146.296 23.2839 146.353 23.3436L148.563 25.553L150.773 23.3436C150.831 23.2839 150.899 23.2363 150.976 23.2036C151.052 23.1708 151.134 23.1536 151.217 23.1529C151.3 23.1521 151.382 23.1679 151.459 23.1994C151.536 23.2308 151.606 23.2772 151.664 23.3359C151.723 23.3946 151.769 23.4644 151.801 23.5412C151.832 23.618 151.848 23.7003 151.847 23.7833C151.847 23.8662 151.829 23.9483 151.797 24.0245C151.764 24.1008 151.716 24.1697 151.657 24.2274L149.447 26.4368L151.657 28.6468C151.716 28.7044 151.764 28.7734 151.797 28.8496C151.829 28.9259 151.847 29.0079 151.847 29.0909C151.848 29.1739 151.832 29.2562 151.801 29.333C151.769 29.4098 151.723 29.4796 151.664 29.5383C151.606 29.5969 151.536 29.6434 151.459 29.6748C151.382 29.7062 151.3 29.722 151.217 29.7213C151.134 29.7206 151.052 29.7033 150.976 29.6706C150.899 29.6378 150.831 29.5902 150.773 29.5305L148.563 27.3211L146.353 29.5305C146.296 29.5902 146.227 29.6378 146.151 29.6706C146.074 29.7033 145.992 29.7206 145.909 29.7213C145.826 29.722 145.744 29.7062 145.667 29.6748C145.59 29.6434 145.521 29.5969 145.462 29.5383C145.403 29.4796 145.357 29.4098 145.325 29.333C145.294 29.2562 145.278 29.1739 145.279 29.0909C145.28 29.0079 145.297 28.9259 145.33 28.8496C145.362 28.7734 145.41 28.7044 145.47 28.6468L147.679 26.4368V26.4374Z" fill="#FACC15"/>
<path d="M126.289 547.7V545.2C126.289 545.067 126.341 544.94 126.435 544.846C126.529 544.752 126.656 544.7 126.789 544.7C126.921 544.7 127.048 544.752 127.142 544.846C127.236 544.94 127.289 545.067 127.289 545.2V547.7H129.789C129.921 547.7 130.048 547.752 130.142 547.846C130.236 547.94 130.289 548.067 130.289 548.2C130.289 548.332 130.236 548.459 130.142 548.553C130.048 548.647 129.921 548.7 129.789 548.7H127.289V551.2C127.289 551.332 127.236 551.459 127.142 551.553C127.048 551.647 126.921 551.7 126.789 551.7C126.656 551.7 126.529 551.647 126.435 551.553C126.341 551.459 126.289 551.332 126.289 551.2V548.7H123.789C123.656 548.7 123.529 548.647 123.435 548.553C123.341 548.459 123.289 548.332 123.289 548.2C123.289 548.067 123.341 547.94 123.435 547.846C123.529 547.752 123.656 547.7 123.789 547.7H126.289Z" fill="#FACC15"/>
<path d="M168.305 102.7V100.2C168.305 100.068 168.358 99.9404 168.452 99.8466C168.545 99.7529 168.673 99.7002 168.805 99.7002C168.938 99.7002 169.065 99.7529 169.159 99.8466C169.252 99.9404 169.305 100.068 169.305 100.2V102.7H171.805C171.938 102.7 172.065 102.753 172.159 102.847C172.252 102.94 172.305 103.068 172.305 103.2C172.305 103.333 172.252 103.46 172.159 103.554C172.065 103.648 171.938 103.7 171.805 103.7H169.305V106.2C169.305 106.333 169.252 106.46 169.159 106.554C169.065 106.648 168.938 106.7 168.805 106.7C168.673 106.7 168.545 106.648 168.452 106.554C168.358 106.46 168.305 106.333 168.305 106.2V103.7H165.805C165.673 103.7 165.545 103.648 165.452 103.554C165.358 103.46 165.305 103.333 165.305 103.2C165.305 103.068 165.358 102.94 165.452 102.847C165.545 102.753 165.673 102.7 165.805 102.7H168.305Z" fill="#FACC15"/>
<path d="M92.3433 72.9499L90.5758 71.1819C90.5281 71.1358 90.49 71.0806 90.4638 71.0196C90.4376 70.9586 90.4238 70.893 90.4232 70.8266C90.4226 70.7602 90.4353 70.6944 90.4604 70.6329C90.4856 70.5715 90.5227 70.5157 90.5696 70.4687C90.6166 70.4218 90.6724 70.3846 90.7339 70.3595C90.7953 70.3344 90.8611 70.3217 90.9275 70.3223C90.9939 70.3229 91.0595 70.3367 91.1205 70.3629C91.1815 70.3891 91.2367 70.4272 91.2828 70.4749L93.0508 72.2424L94.8183 70.4749C94.8645 70.4272 94.9196 70.3891 94.9806 70.3629C95.0416 70.3367 95.1072 70.3229 95.1736 70.3223C95.24 70.3217 95.3059 70.3344 95.3673 70.3595C95.4288 70.3846 95.4846 70.4218 95.5315 70.4687C95.5785 70.5157 95.6156 70.5715 95.6407 70.6329C95.6659 70.6944 95.6785 70.7602 95.678 70.8266C95.6774 70.893 95.6636 70.9586 95.6374 71.0196C95.6112 71.0806 95.5731 71.1358 95.5253 71.1819L93.7578 72.9494L95.5253 74.7174C95.5731 74.7635 95.6112 74.8187 95.6374 74.8797C95.6636 74.9407 95.6774 75.0063 95.678 75.0727C95.6785 75.1391 95.6659 75.2049 95.6407 75.2664C95.6156 75.3278 95.5785 75.3837 95.5315 75.4306C95.4846 75.4776 95.4288 75.5147 95.3673 75.5398C95.3059 75.565 95.24 75.5776 95.1736 75.577C95.1072 75.5765 95.0416 75.5627 94.9806 75.5365C94.9196 75.5103 94.8645 75.4722 94.8183 75.4244L93.0508 73.6569L91.2828 75.4244C91.2367 75.4722 91.1815 75.5103 91.1205 75.5365C91.0595 75.5627 90.9939 75.5765 90.9275 75.577C90.8611 75.5776 90.7953 75.565 90.7339 75.5398C90.6724 75.5147 90.6166 75.4776 90.5696 75.4306C90.5227 75.3837 90.4856 75.3278 90.4604 75.2664C90.4353 75.2049 90.4226 75.1391 90.4232 75.0727C90.4238 75.0063 90.4376 74.9407 90.4638 74.8797C90.49 74.8187 90.5281 74.7635 90.5758 74.7174L92.3433 72.9494V72.9499Z" fill="#FACC15"/>
<defs>
<clipPath id="clip0_102_90904">
<rect width="11" height="11" fill="white" transform="matrix(-1 0 0 1 256.024 161)"/>
</clipPath>
<clipPath id="clip1_102_90904">
<rect width="7" height="7" fill="white" transform="matrix(-1 0 0 1 136 86)"/>
</clipPath>
<clipPath id="clip2_102_90904">
<rect width="8" height="8" fill="white" transform="matrix(-1 0 0 1 235 487)"/>
</clipPath>
<clipPath id="clip3_102_90904">
<rect width="10" height="10" fill="white" transform="matrix(-1 0 0 1 80.0002 109)"/>
</clipPath>
<clipPath id="clip4_102_90904">
<rect width="10" height="10" fill="white" transform="matrix(-1 0 0 1 10.0002 485)"/>
</clipPath>
<clipPath id="clip5_102_90904">
<rect width="11" height="11" fill="white" transform="matrix(-1 0 0 1 220 0)"/>
</clipPath>
<clipPath id="clip6_102_90904">
<rect width="4" height="4" fill="white" transform="matrix(-1 0 0 1 242.024 261)"/>
</clipPath>
<clipPath id="clip7_102_90904">
<rect width="7" height="7" fill="white" transform="matrix(-1 0 0 1 124 295)"/>
</clipPath>
<clipPath id="clip8_102_90904">
<rect width="6" height="6" fill="white" transform="matrix(-1 0 0 1 69.0002 27)"/>
</clipPath>
<clipPath id="clip9_102_90904">
<rect width="6" height="6" fill="white" transform="matrix(-1 0 0 1 169.025 236)"/>
</clipPath>
</defs>
</svg>
