<svg width="53" height="53" viewBox="0 0 53 53" fill="none" xmlns="http://www.w3.org/2000/svg">
<path d="M26.6667 0.5C12.3305 0.5 0.666748 12.1637 0.666748 26.5C0.666748 40.8363 12.3305 52.5 26.6667 52.5C41.003 52.5 52.6667 40.8363 52.6667 26.5C52.6667 12.1637 41.003 0.5 26.6667 0.5ZM36.003 32.1025C34.9405 33.3975 31.0417 36.9125 26.6667 40.0413C22.2917 36.9163 18.393 33.3975 17.3305 32.1025C14.8305 29.0563 13.633 25.9275 13.668 22.54C13.7067 18.6575 16.8205 15.4988 20.6092 15.4988C23.3592 15.4988 25.2717 17.05 26.383 18.3438L26.6667 18.6875L26.9505 18.3438C28.0417 17.0363 29.9692 15.5 32.7243 15.5C36.513 15.5 39.6267 18.6588 39.6655 22.5413C39.7005 25.9275 38.5018 29.0563 36.003 32.1025Z" fill="#FACC15"/>
</svg>
