<svg width="159" height="128" viewBox="0 0 159 128" fill="none" xmlns="http://www.w3.org/2000/svg">
<path d="M107.505 103.314L97.6052 93.4139C97.4142 93.2294 97.2618 93.0087 97.157 92.7647C97.0522 92.5207 96.997 92.2583 96.9947 91.9927C96.9924 91.7272 97.043 91.4638 97.1436 91.218C97.2441 90.9722 97.3926 90.7489 97.5804 90.5611C97.7682 90.3733 97.9915 90.2248 98.2373 90.1243C98.4831 90.0237 98.7464 89.9731 99.012 89.9754C99.2776 89.9777 99.54 90.0329 99.784 90.1377C100.028 90.2425 100.249 90.3949 100.433 90.5859L111.747 101.9C112.122 102.275 112.333 102.784 112.333 103.314C112.333 103.844 112.122 104.353 111.747 104.728L100.433 116.042C100.249 116.233 100.028 116.385 99.784 116.49C99.54 116.595 99.2776 116.65 99.012 116.652C98.7464 116.655 98.4831 116.604 98.2373 116.504C97.9915 116.403 97.7682 116.254 97.5804 116.067C97.3926 115.879 97.2441 115.656 97.1436 115.41C97.043 115.164 96.9924 114.901 96.9947 114.635C96.997 114.37 97.0522 114.107 97.157 113.863C97.2618 113.619 97.4142 113.398 97.6052 113.214L107.505 103.314ZM115.019 112H131.019C131.55 112 132.058 112.211 132.433 112.586C132.808 112.961 133.019 113.469 133.019 114C133.019 114.53 132.808 115.039 132.433 115.414C132.058 115.789 131.55 116 131.019 116H115.019C114.489 116 113.98 115.789 113.605 115.414C113.23 115.039 113.019 114.53 113.019 114C113.019 113.469 113.23 112.961 113.605 112.586C113.98 112.211 114.489 112 115.019 112Z" fill="#CBD5E1"/>
<path d="M41.8297 29.5333C40.9596 28.9569 39.9364 28.655 38.8928 28.6669C37.8491 28.6788 36.8331 29.0039 35.9764 29.6L9.7597 47.8667C8.3597 48.84 7.52637 50.4333 7.52637 52.14V71.8167C7.52637 73.5667 8.40637 75.1967 9.86637 76.16L36.513 93.7767C37.3649 94.3399 38.3635 94.6402 39.3847 94.6402C40.4059 94.6402 41.4045 94.3399 42.2564 93.7767L69.433 75.8233C70.893 74.8567 71.7697 73.2233 71.7697 71.4767V52.1433C71.7697 50.3967 70.893 48.7667 69.4364 47.8L41.8297 29.5333ZM62.1297 50.8433L52.083 57.5867L42.663 50.7367L42.603 37.2633L62.1264 50.8433H62.1297ZM35.7897 37.2767V50.4667L26.133 57.2133L16.5097 50.7567L35.7897 37.2767ZM13.8664 57.2533L20.0997 61.43L13.8664 65.79V57.2567V57.2533ZM35.9497 85.3633L16.513 72.3333L26.223 65.5433L35.9564 72.07V85.37L35.9497 85.3633ZM32.2664 61.32L38.5597 56.92L45.893 61.7367L39.393 66.1033L32.2664 61.32ZM42.823 85.3633V72.0633L52.123 65.83L62.133 72.4133L42.823 85.3633ZM64.9064 66.0133L58.3064 61.68L64.9064 57.25V66.0167V66.0133Z" fill="#F1F5F9"/>
<path d="M135 41.3333C134.293 41.3333 133.614 41.0524 133.114 40.5523C132.614 40.0522 132.333 39.3739 132.333 38.6667C132.333 37.9594 132.614 37.2811 133.114 36.781C133.614 36.2809 134.293 36 135 36C137.408 35.9989 139.77 35.3457 141.837 34.1099C143.904 32.874 145.597 31.1016 146.737 28.9808C147.877 26.86 148.422 24.47 148.313 22.0645C148.205 19.659 147.446 17.3279 146.119 15.3187C144.792 13.3094 142.946 11.697 140.776 10.6526C138.607 9.60831 136.195 9.171 133.797 9.38717C131.398 9.60334 129.104 10.4649 127.156 11.8804C125.208 13.2959 123.679 15.2125 122.733 17.4267L120.813 21.9227L116.168 20.3973C115.069 20.0373 113.904 19.92 112.755 20.0534C111.606 20.1868 110.5 20.5678 109.512 21.1701C108.525 21.7724 107.68 22.5817 107.035 23.5422C106.39 24.5027 105.962 25.5915 105.779 26.7337C105.596 27.8758 105.662 29.0441 105.974 30.1579C106.286 31.2717 106.836 32.3047 107.586 33.1855C108.336 34.0663 109.268 34.7741 110.317 35.26C111.367 35.7459 112.51 35.9983 113.666 36H119C119.707 36 120.385 36.2809 120.885 36.781C121.385 37.2811 121.666 37.9594 121.666 38.6667C121.666 39.3739 121.385 40.0522 120.885 40.5523C120.385 41.0524 119.707 41.3333 119 41.3333H113.666C111.738 41.3323 109.832 40.9128 108.082 40.1039C106.331 39.295 104.776 38.116 103.526 36.6481C102.275 35.1801 101.357 33.4583 100.836 31.6014C100.315 29.7445 100.203 27.7967 100.508 25.8924C100.813 23.988 101.527 22.1725 102.602 20.571C103.677 18.9695 105.086 17.6202 106.732 16.6161C108.379 15.612 110.224 14.9772 112.14 14.7552C114.055 14.5333 115.997 14.7296 117.829 15.3307C119.521 11.3777 122.526 8.12988 126.336 6.13585C130.145 4.14182 134.526 3.52378 138.739 4.38611C142.952 5.24844 146.737 7.53829 149.457 10.8689C152.177 14.1995 153.664 18.3667 153.666 22.6667C153.666 27.6174 151.7 32.3653 148.199 35.866C144.698 39.3667 139.95 41.3333 135 41.3333ZM128.893 33.504C130.277 34.032 130.992 35.64 130.488 37.0933L126.84 47.6267C126.333 49.08 124.805 49.8293 123.421 49.2987C122.037 48.7707 121.325 47.1627 121.829 45.7093L125.477 35.176C125.978 33.7227 127.509 32.9733 128.893 33.504ZM133.245 44.0347C134.629 44.5627 135.341 46.1707 134.837 47.624L131.189 58.1573C130.688 59.6107 129.157 60.36 127.773 59.8293C126.389 59.3013 125.674 57.6933 126.178 56.24L129.826 45.7067C130.333 44.2533 131.861 43.504 133.245 44.0347ZM124.333 43.864H132.333C133.805 43.864 135 45.1173 135 46.6667C135 48.2133 133.805 49.4667 132.333 49.4667H124.333C122.861 49.4667 121.666 48.2133 121.666 46.6667C121.666 45.12 122.861 43.8667 124.333 43.8667V43.864Z" fill="#E2E8F0"/>
</svg>
