<svg width="103" height="36" viewBox="0 0 103 36" fill="none" xmlns="http://www.w3.org/2000/svg">
<path d="M21.0001 12.0312L18.5001 12.0312C18.3031 12.0312 18.108 12.07 17.926 12.1454C17.7441 12.2208 17.5787 12.3312 17.4393 12.4705C17.3001 12.6099 17.1896 12.7753 17.1142 12.9572C17.0388 13.1392 17 13.3343 17 13.5312L17 19.0313C16.5 21.0308 16.4065 21.6247 15 23.0313C13.5935 24.4378 12.4892 25.5312 10.5 25.5313C9.51511 25.5313 8.90995 25.4082 8 25.0312C7.09004 24.6543 6.19645 23.7277 5.5 23.0313C4.80356 22.3348 4.87691 22.4412 4.5 21.5312C4.12309 20.6213 4.00003 20.0162 4.00004 19.0312L4.00004 13.5317C4.0001 13.3347 3.96134 13.1395 3.88599 12.9575C3.81063 12.7755 3.70015 12.61 3.56086 12.4707C3.42155 12.3314 3.25617 12.2209 3.07415 12.1454C2.89214 12.07 2.69705 12.0312 2.50002 12.0312L-7.43095e-07 12.0312L-4.15255e-07 18.5313C-3.55061e-07 19.9102 0.271592 21.2756 0.799269 22.5495C1.32695 23.8234 2.10038 24.9809 3.07539 25.9559C4.05042 26.9309 5.20793 27.7044 6.48186 28.232C7.75578 28.7597 9.12116 29.0313 10.5 29.0312C13.2848 29.0312 15.9555 27.925 17.9247 25.9559C19.8938 23.9868 21.0001 21.3161 21.0001 18.5313L21.0001 12.0312Z" fill="#EA580C"/>
<circle cx="4.5" cy="11.4688" r="4.5" fill="#0F172A"/>
<path d="M33.0314 11.5938V14.7812H23.1876V11.5938H33.0314ZM25.6251 7.42188H30.1251V23.4062C30.1251 23.8958 30.1876 24.2708 30.3126 24.5312C30.448 24.7917 30.646 24.974 30.9064 25.0781C31.1668 25.1719 31.4949 25.2188 31.8907 25.2188C32.172 25.2188 32.422 25.2083 32.6407 25.1875C32.8699 25.1562 33.0626 25.125 33.2189 25.0938L33.2345 28.4062C32.8491 28.5312 32.4324 28.6302 31.9845 28.7031C31.5366 28.776 31.0418 28.8125 30.5001 28.8125C29.5105 28.8125 28.646 28.651 27.9064 28.3281C27.1772 27.9948 26.6147 27.4635 26.2189 26.7344C25.823 26.0052 25.6251 25.0469 25.6251 23.8594V7.42188ZM43.3751 28.8125C42.0626 28.8125 40.8855 28.6042 39.8439 28.1875C38.8022 27.7604 37.9168 27.1719 37.1876 26.4219C36.4689 25.6719 35.9168 24.8021 35.5314 23.8125C35.146 22.8125 34.9532 21.75 34.9532 20.625V20C34.9532 18.7188 35.1355 17.5469 35.5001 16.4844C35.8647 15.4219 36.3855 14.5 37.0626 13.7188C37.7501 12.9375 38.5835 12.3385 39.5626 11.9219C40.5418 11.4948 41.646 11.2812 42.8751 11.2812C44.073 11.2812 45.1355 11.4792 46.0626 11.875C46.9897 12.2708 47.7657 12.8333 48.3907 13.5625C49.0262 14.2917 49.5053 15.1667 49.8282 16.1875C50.1512 17.1979 50.3126 18.3229 50.3126 19.5625V21.4375H36.8751V18.4375H45.8907V18.0938C45.8907 17.4688 45.7762 16.9115 45.547 16.4219C45.3282 15.9219 44.9949 15.526 44.547 15.2344C44.0991 14.9427 43.5262 14.7969 42.8282 14.7969C42.2345 14.7969 41.7241 14.9271 41.297 15.1875C40.8699 15.4479 40.521 15.8125 40.2501 16.2812C39.9897 16.75 39.7918 17.3021 39.6564 17.9375C39.5314 18.5625 39.4689 19.25 39.4689 20V20.625C39.4689 21.3021 39.5626 21.9271 39.7501 22.5C39.948 23.0729 40.2241 23.5677 40.5782 23.9844C40.9428 24.401 41.3803 24.724 41.8907 24.9531C42.4116 25.1823 43.0001 25.2969 43.6564 25.2969C44.4689 25.2969 45.2241 25.1406 45.922 24.8281C46.6303 24.5052 47.2397 24.0208 47.7501 23.375L49.9376 25.75C49.5835 26.2604 49.0991 26.75 48.4845 27.2188C47.8803 27.6875 47.1512 28.0729 46.297 28.375C45.4428 28.6667 44.4689 28.8125 43.3751 28.8125ZM62.0001 24.6875V17.1562C62.0001 16.6146 61.9116 16.151 61.7345 15.7656C61.5574 15.3698 61.2814 15.0625 60.9064 14.8438C60.5418 14.625 60.0678 14.5156 59.4845 14.5156C58.9845 14.5156 58.5522 14.6042 58.1876 14.7812C57.823 14.9479 57.5418 15.1927 57.3439 15.5156C57.146 15.8281 57.047 16.1979 57.047 16.625H52.547C52.547 15.9062 52.7137 15.224 53.047 14.5781C53.3803 13.9323 53.8647 13.3646 54.5001 12.875C55.1355 12.375 55.8907 11.9844 56.7657 11.7031C57.6512 11.4219 58.6407 11.2812 59.7345 11.2812C61.047 11.2812 62.2137 11.5 63.2345 11.9375C64.2553 12.375 65.0574 13.0312 65.6407 13.9062C66.2345 14.7812 66.5314 15.875 66.5314 17.1875V24.4219C66.5314 25.349 66.5887 26.1094 66.7032 26.7031C66.8178 27.2865 66.9845 27.7969 67.2032 28.2344V28.5H62.6564C62.4376 28.0417 62.271 27.4688 62.1564 26.7812C62.0522 26.0833 62.0001 25.3854 62.0001 24.6875ZM62.5939 18.2031L62.6251 20.75H60.1095C59.5157 20.75 59.0001 20.8177 58.5626 20.9531C58.1251 21.0885 57.7657 21.2812 57.4845 21.5312C57.2032 21.7708 56.9949 22.0521 56.8595 22.375C56.7345 22.6979 56.672 23.0521 56.672 23.4375C56.672 23.8229 56.7605 24.1719 56.9376 24.4844C57.1147 24.7865 57.3699 25.026 57.7032 25.2031C58.0366 25.3698 58.4272 25.4531 58.8751 25.4531C59.5522 25.4531 60.1407 25.3177 60.6407 25.0469C61.1407 24.776 61.5262 24.4427 61.797 24.0469C62.0782 23.651 62.2241 23.276 62.2345 22.9219L63.422 24.8281C63.2553 25.2552 63.0262 25.6979 62.7345 26.1562C62.4532 26.6146 62.0939 27.0469 61.6564 27.4531C61.2189 27.849 60.6928 28.1771 60.0782 28.4375C59.4637 28.6875 58.7345 28.8125 57.8907 28.8125C56.8178 28.8125 55.8439 28.599 54.9689 28.1719C54.1043 27.7344 53.4168 27.1354 52.9064 26.375C52.4064 25.6042 52.1564 24.7292 52.1564 23.75C52.1564 22.8646 52.323 22.0781 52.6564 21.3906C52.9897 20.7031 53.4793 20.125 54.1251 19.6562C54.7814 19.1771 55.5991 18.8177 56.5782 18.5781C57.5574 18.3281 58.6928 18.2031 59.9845 18.2031H62.5939ZM76.9845 25.2969C77.5366 25.2969 78.0262 25.1927 78.4532 24.9844C78.8803 24.7656 79.2137 24.4635 79.4532 24.0781C79.7032 23.6823 79.8335 23.2188 79.8439 22.6875H84.0782C84.0678 23.875 83.7501 24.9323 83.1251 25.8594C82.5001 26.776 81.6616 27.5 80.6095 28.0312C79.5574 28.5521 78.3803 28.8125 77.0782 28.8125C75.7657 28.8125 74.6199 28.5938 73.6407 28.1562C72.672 27.7188 71.8647 27.1146 71.2189 26.3438C70.573 25.5625 70.0887 24.6562 69.7657 23.625C69.4428 22.5833 69.2814 21.4688 69.2814 20.2812V19.8281C69.2814 18.6302 69.4428 17.5156 69.7657 16.4844C70.0887 15.4427 70.573 14.5365 71.2189 13.7656C71.8647 12.9844 72.672 12.375 73.6407 11.9375C74.6095 11.5 75.7449 11.2812 77.047 11.2812C78.4324 11.2812 79.646 11.5469 80.6876 12.0781C81.7397 12.6094 82.5626 13.3698 83.1564 14.3594C83.7605 15.3385 84.0678 16.5 84.0782 17.8438H79.8439C79.8335 17.2812 79.7137 16.7708 79.4845 16.3125C79.2657 15.8542 78.9428 15.4896 78.5157 15.2188C78.0991 14.9375 77.5835 14.7969 76.9689 14.7969C76.3126 14.7969 75.7762 14.9375 75.3595 15.2188C74.9428 15.4896 74.6199 15.8646 74.3907 16.3438C74.1616 16.8125 74.0001 17.349 73.9064 17.9531C73.823 18.5469 73.7814 19.1719 73.7814 19.8281V20.2812C73.7814 20.9375 73.823 21.5677 73.9064 22.1719C73.9897 22.776 74.146 23.3125 74.3751 23.7812C74.6147 24.25 74.9428 24.6198 75.3595 24.8906C75.7762 25.1615 76.3178 25.2969 76.9845 25.2969ZM91.0782 4.5V28.5H86.5782V4.5H91.0782ZM90.4376 19.4531H89.2032C89.2137 18.276 89.3699 17.1927 89.672 16.2031C89.9741 15.2031 90.4064 14.3385 90.9689 13.6094C91.5314 12.8698 92.2032 12.2969 92.9845 11.8906C93.7762 11.4844 94.6512 11.2812 95.6095 11.2812C96.4428 11.2812 97.198 11.401 97.8751 11.6406C98.5626 11.8698 99.1512 12.2448 99.6407 12.7656C100.141 13.276 100.526 13.9479 100.797 14.7812C101.068 15.6146 101.203 16.625 101.203 17.8125V28.5H96.672V17.7812C96.672 17.0312 96.5626 16.4427 96.3439 16.0156C96.1355 15.5781 95.8282 15.2708 95.422 15.0938C95.0262 14.9062 94.5366 14.8125 93.9532 14.8125C93.3074 14.8125 92.7553 14.9323 92.297 15.1719C91.8491 15.4115 91.4897 15.7448 91.2189 16.1719C90.948 16.5885 90.7501 17.0781 90.6251 17.6406C90.5001 18.2031 90.4376 18.8073 90.4376 19.4531Z" fill="#0F172A"/>
</svg>
