<svg width="20" height="21" viewBox="0 0 20 21" fill="none" xmlns="http://www.w3.org/2000/svg">
<path d="M10 20.2662C4.477 20.2662 0 15.7892 0 10.2662C0 4.74317 4.477 0.266174 10 0.266174C15.523 0.266174 20 4.74317 20 10.2662C20 15.7892 15.523 20.2662 10 20.2662ZM10 18.2662C12.1217 18.2662 14.1566 17.4233 15.6569 15.923C17.1571 14.4227 18 12.3879 18 10.2662C18 8.14444 17.1571 6.10961 15.6569 4.60932C14.1566 3.10903 12.1217 2.26617 10 2.26617C7.87827 2.26617 5.84344 3.10903 4.34315 4.60932C2.84285 6.10961 2 8.14444 2 10.2662C2 12.3879 2.84285 14.4227 4.34315 15.923C5.84344 17.4233 7.87827 18.2662 10 18.2662ZM14.126 12.0122L10.071 14.9102C9.166 15.5562 7.941 15.2992 7.334 14.3342C7.11494 13.9833 6.99918 13.5778 7 13.1642V7.36817C7 6.20817 7.883 5.26617 8.972 5.26617C9.363 5.26617 9.746 5.39017 10.071 5.62217L14.126 8.52017C15.031 9.16717 15.272 10.4722 14.666 11.4372C14.5251 11.6621 14.3417 11.8574 14.126 12.0122ZM8.972 7.36817V13.1642L13.027 10.2662L8.972 7.36817Z" fill="#2563EB"/>
</svg>
